<svg width="53" height="53" viewBox="0 0 53 53" fill="none" xmlns="http://www.w3.org/2000/svg">
<g clip-path="url(#clip0_9263_1032)">
<mask id="mask0_9263_1032" style="mask-type:luminance" maskUnits="userSpaceOnUse" x="0" y="0" width="53" height="53">
<path d="M53 0H0V53H53V0Z" fill="white"/>
</mask>
<g mask="url(#mask0_9263_1032)">
<path d="M12.3005 50.1305C7.13301 50.1305 2.7605 45.758 2.7605 40.5905V26.9871C2.65009 20.5387 5.03509 14.4658 9.49592 9.91665C13.9568 5.38957 19.9413 2.87207 26.3898 2.87207C39.5514 2.87207 50.2398 13.5825 50.2398 26.7221V40.3255C50.2398 45.5813 45.9556 49.8655 40.6998 49.8655C35.5323 49.8655 31.1598 45.493 31.1598 40.3255V34.12C31.1598 30.9179 33.6773 28.4004 36.8794 28.4004C40.0814 28.4004 42.5989 30.9179 42.5989 34.12V40.8113C42.5989 41.7167 41.8481 42.4675 40.9427 42.4675C40.0373 42.4675 39.2864 41.7167 39.2864 40.8113V34.12C39.2864 32.6184 38.0719 31.7129 36.8794 31.7129C35.3777 31.7129 34.4723 32.9275 34.4723 34.12V40.3255C34.4723 43.7042 37.321 46.553 40.6998 46.553C44.0785 46.553 46.9273 43.7042 46.9273 40.3255V26.7221C46.9273 15.3933 37.7185 6.18457 26.3898 6.18457C20.8468 6.18457 15.7013 8.32665 11.8588 12.2354C8.01634 16.1442 5.96259 21.3779 6.073 26.9429V40.5905C6.073 43.9692 8.92175 46.818 12.3005 46.818C15.6793 46.818 18.528 43.9692 18.528 40.5905V34.385C18.528 32.8834 17.3134 31.9779 16.1209 31.9779C14.6193 31.9779 13.7138 33.1925 13.7138 34.385V40.8334C13.7138 41.7388 12.963 42.4896 12.0576 42.4896C11.1522 42.4896 10.4013 41.7388 10.4013 40.8334V34.385C10.4013 31.1829 12.9188 28.6654 16.1209 28.6654C19.323 28.6654 21.8405 31.1829 21.8405 34.385V40.5905C21.8405 45.758 17.468 50.1305 12.3005 50.1305Z" fill="white"/>
</g>
</g>
<defs>
<clipPath id="clip0_9263_1032">
<rect width="53" height="53" fill="white"/>
</clipPath>
</defs>
</svg>
