<svg width="1308" height="914" viewBox="0 0 1308 914" fill="none" xmlns="http://www.w3.org/2000/svg">
<g filter="url(#filter0_dif_9263_992)">
<path d="M654 92C961.623 92 1211 181.543 1211 292C1211 382.78 1042.56 459.433 811.778 483.863C734.619 492.031 672 554.331 672 631.921C672 670.359 691 709.562 691 748C691 783.346 674.435 812 654 812C633.565 812 617 783.346 617 748C617 709.562 636 670.359 636 631.921C636 554.331 573.381 492.031 496.222 483.863C265.441 459.433 97 382.78 97 292C97 181.543 346.377 92 654 92Z" fill="white"/>
</g>
<defs>
<filter id="filter0_dif_9263_992" x="0" y="0" width="1308" height="914" filterUnits="userSpaceOnUse" color-interpolation-filters="sRGB">
<feFlood flood-opacity="0" result="BackgroundImageFix"/>
<feColorMatrix in="SourceAlpha" type="matrix" values="0 0 0 0 0 0 0 0 0 0 0 0 0 0 0 0 0 0 127 0" result="hardAlpha"/>
<feOffset dy="5"/>
<feGaussianBlur stdDeviation="48.5"/>
<feComposite in2="hardAlpha" operator="out"/>
<feColorMatrix type="matrix" values="0 0 0 0 0.923077 0 0 0 0 0.712445 0 0 0 0 0.133205 0 0 0 1 0"/>
<feBlend mode="normal" in2="BackgroundImageFix" result="effect1_dropShadow_9263_992"/>
<feBlend mode="normal" in="SourceGraphic" in2="effect1_dropShadow_9263_992" result="shape"/>
<feColorMatrix in="SourceAlpha" type="matrix" values="0 0 0 0 0 0 0 0 0 0 0 0 0 0 0 0 0 0 127 0" result="hardAlpha"/>
<feOffset dy="-10"/>
<feGaussianBlur stdDeviation="20.1"/>
<feComposite in2="hardAlpha" operator="arithmetic" k2="-1" k3="1"/>
<feColorMatrix type="matrix" values="0 0 0 0 1 0 0 0 0 0.738462 0 0 0 0 0.0192308 0 0 0 1 0"/>
<feBlend mode="normal" in2="shape" result="effect2_innerShadow_9263_992"/>
<feGaussianBlur stdDeviation="23.8" result="effect3_foregroundBlur_9263_992"/>
</filter>
</defs>
</svg>
