<svg width="53" height="53" viewBox="0 0 53 53" fill="none" xmlns="http://www.w3.org/2000/svg">
<path d="M29.5032 15.768C29.5032 16.1876 29.6578 16.6072 29.9891 16.9384L36.7023 23.6515C37.3427 24.2919 38.4027 24.2919 39.0431 23.6515C39.6835 23.0111 39.6835 21.9511 39.0431 21.3107L32.3298 14.5974C31.6894 13.9569 30.6295 13.9569 29.9891 14.5974C29.6799 14.9286 29.5032 15.3484 29.5032 15.768Z" fill="white"/>
<path d="M13.4714 22.4814C13.4714 23.3869 14.2223 24.1377 15.1277 24.1377H37.8955C38.8009 24.1377 39.5518 23.3869 39.5518 22.4814C39.5518 21.576 38.8009 20.8252 37.8955 20.8252H15.1277C14.2002 20.8252 13.4714 21.576 13.4714 22.4814Z" fill="white"/>
<path d="M13.4709 30.5187C13.4709 30.9383 13.6255 31.3579 13.9567 31.6891L20.6701 38.4025C21.3105 39.0429 22.3705 39.0429 23.0109 38.4025C23.6513 37.7621 23.6513 36.702 23.0109 36.0616L16.2976 29.3483C15.6572 28.7079 14.5972 28.7079 13.9567 29.3483C13.6255 29.6575 13.4709 30.077 13.4709 30.5187Z" fill="white"/>
<path d="M13.4714 30.5195C13.4714 31.425 14.2223 32.1758 15.1277 32.1758H37.8955C38.8009 32.1758 39.5518 31.425 39.5518 30.5195C39.5518 29.6141 38.8009 28.8633 37.8955 28.8633H15.1277C14.2002 28.8633 13.4714 29.592 13.4714 30.5195Z" fill="white"/>
<path d="M2.76009 26.4997C2.76009 39.5951 13.4043 50.2393 26.4997 50.2393C39.5951 50.2393 50.2393 39.5951 50.2393 26.4997C50.2393 13.4043 39.5951 2.7601 26.4997 2.7601C13.4043 2.7601 2.76009 13.4043 2.76009 26.4997ZM46.9268 26.4997C46.9268 37.7622 37.7622 46.9268 26.4997 46.9268C15.2372 46.9268 6.07259 37.7622 6.07259 26.4997C6.07259 15.2372 15.2372 6.0726 26.4997 6.0726C37.7622 6.0726 46.9268 15.2372 46.9268 26.4997Z" fill="white"/>
</svg>
